<svg width="30" height="30" viewBox="0 0 30 30" fill="none" xmlns="http://www.w3.org/2000/svg">
<path d="M20.025 22.0125C17.7644 23.7672 14.9202 24.5944 12.0712 24.3259C9.22216 24.0573 6.58256 22.7132 4.68969 20.567C2.79681 18.4209 1.79293 15.634 1.8824 12.7738C1.97186 9.91355 3.14795 7.19491 5.17125 5.17125C7.19491 3.14795 9.91355 1.97186 12.7738 1.8824C15.634 1.79293 18.4209 2.79681 20.567 4.68969C22.7132 6.58256 24.0573 9.22216 24.3259 12.0712C24.5944 14.9202 23.7672 17.7644 22.0125 20.025L27.7125 25.725C27.8976 25.8969 28.0329 26.1155 28.1042 26.3579C28.1755 26.6002 28.1801 26.8573 28.1175 27.102C28.0549 27.3467 27.9275 27.5701 27.7487 27.7485C27.5698 27.9268 27.3461 28.0537 27.1013 28.1156C26.8568 28.1783 26.6 28.1739 26.3578 28.103C26.1156 28.032 25.897 27.8971 25.725 27.7125L20.025 22.0125ZM21.5625 13.125C21.5792 12.0068 21.3733 10.8964 20.9569 9.85841C20.5405 8.82045 19.9219 7.87566 19.137 7.07898C18.3521 6.2823 17.4166 5.64965 16.385 5.21782C15.3534 4.786 14.2462 4.56361 13.1278 4.56361C12.0094 4.56361 10.9022 4.786 9.87061 5.21782C8.83898 5.64965 7.90351 6.2823 7.11863 7.07898C6.33374 7.87566 5.7151 8.82045 5.2987 9.85841C4.8823 10.8964 4.67645 12.0068 4.69312 13.125C4.72615 15.3402 5.62934 17.4536 7.20755 19.0084C8.78577 20.5633 10.9123 21.4349 13.1278 21.4349C15.3433 21.4349 17.4699 20.5633 19.0481 19.0084C20.6263 17.4536 21.5295 15.3402 21.5625 13.125Z" fill="white"/>
</svg>
